<?xml version="1.0" standalone="no"?>
<!DOCTYPE svg PUBLIC "-//W3C//DTD SVG 20010904//EN"
 "http://www.w3.org/TR/2001/REC-SVG-20010904/DTD/svg10.dtd">
<svg version="1.0" xmlns="http://www.w3.org/2000/svg"
 width="500.000000pt" height="500.000000pt" viewBox="0 0 500.000000 500.000000"
 preserveAspectRatio="xMidYMid meet">

<g transform="translate(0.000000,500.000000) scale(0.100000,-0.100000)"
fill="#000000" stroke="none">
<path d="M2630 4826 c-61 -47 -95 -88 -131 -156 -20 -37 -24 -60 -24 -130 0
-139 33 -187 335 -495 217 -222 295 -316 345 -414 32 -65 58 -183 50 -231 l-5
-35 55 58 c30 32 70 86 88 120 30 58 32 68 32 167 0 95 -3 110 -27 156 -47 90
-128 187 -320 386 -103 106 -208 220 -234 253 -91 118 -133 234 -114 318 5 23
8 43 6 44 -1 1 -26 -17 -56 -41z"/>
<path d="M1927 4598 c-151 -149 -250 -307 -303 -484 -23 -76 -27 -108 -27
-219 -1 -162 15 -231 89 -380 118 -239 333 -474 834 -909 626 -543 837 -776
913 -1006 32 -96 40 -162 28 -225 -5 -27 -8 -51 -7 -53 10 -10 165 110 229
177 81 85 131 170 163 277 26 85 24 236 -4 337 -80 285 -266 509 -892 1072
-494 445 -710 688 -836 937 -81 161 -123 355 -106 491 5 37 7 67 6 67 -2 0
-41 -37 -87 -82z"/>
<path d="M1289 3609 c-153 -105 -264 -241 -310 -380 -20 -61 -24 -94 -23 -184
1 -239 99 -438 359 -726 113 -126 199 -208 610 -580 138 -125 304 -282 371
-351 353 -363 514 -660 516 -950 0 -53 -3 -106 -7 -119 l-7 -22 30 22 c40 28
154 151 210 226 60 80 137 241 163 340 25 96 30 278 10 370 -32 146 -116 303
-253 474 -102 127 -388 403 -683 661 -365 319 -507 451 -626 583 -225 250
-319 450 -291 617 6 35 10 66 8 67 -1 2 -36 -20 -77 -48z"/>
<path d="M1575 1591 c-98 -75 -146 -161 -153 -272 -4 -68 -1 -84 22 -135 42
-90 93 -152 321 -384 306 -312 374 -414 383 -577 2 -46 8 -83 13 -83 16 0 107
119 135 177 26 52 29 68 29 158 0 90 -3 106 -28 156 -48 93 -123 184 -327 394
-108 110 -217 230 -243 266 -85 120 -120 226 -99 302 6 21 7 37 4 37 -4 0 -30
-18 -57 -39z"/>
</g>
</svg>
